<?xml version="1.0" encoding="UTF-8"?>
<svg version="1.1" xmlns="http://www.w3.org/2000/svg" width="747" height="947">
<path d="M0 0 C70.29 0 140.58 0 213 0 C209.62423783 11.25254058 209.62423783 11.25254058 207.88134766 16.10571289 C207.48803253 17.20460342 207.09471741 18.30349396 206.68948364 19.4356842 C206.26859467 20.60288498 205.84770569 21.77008575 205.4140625 22.97265625 C204.96050886 24.23577217 204.50713445 25.49895247 204.05392456 26.76219177 C202.83543901 30.1557924 201.61326503 33.54805328 200.3901062 36.93997192 C199.61823258 39.08127392 198.84741691 41.22295401 198.0769043 43.36474609 C190.55421678 64.27258017 182.92487055 85.13895592 175.21295166 105.97781372 C168.19561406 124.94553598 161.31778361 143.9599572 154.5 163 C147.22077558 183.32769807 139.86343266 203.62312262 132.375 223.875 C123.09669027 248.9690804 113.9686843 274.11549812 104.87792969 299.27804565 C100.27095614 312.02561326 95.63622283 324.76304764 91 337.5 C84.57005769 355.16666244 78.15893845 372.84001624 71.76425171 390.51947021 C63.8168 412.49154636 55.83074741 434.44905579 47.8034668 456.39208984 C42.93757813 469.69357065 38.08560178 482.99997974 33.25 496.3125 C28.72080904 508.78143643 24.18197598 521.24679201 19.62890625 533.70703125 C19.15360498 535.00784805 18.67830388 536.3086649 18.20300293 537.60948181 C17.23213065 540.26652528 16.26124081 542.92356233 15.29034424 545.58059692 C15.04682472 546.24703846 14.80330521 546.91348 14.55240631 547.60011673 C14.05898509 548.95045035 13.56555145 550.30077943 13.07210541 551.65110397 C5.36375462 572.74580381 -2.29667428 593.85729521 -9.92739868 614.98022461 C-16.76462241 633.89982803 -23.70132955 652.78113977 -30.67828369 671.64959717 C-37.97728073 691.39988462 -45.12673685 711.20084346 -52.22470474 731.02394485 C-59.83736526 752.28338409 -67.56658371 773.49551001 -75.3984375 794.67529297 C-80.94421084 809.67390259 -86.43332423 824.68910455 -91.80267334 839.7517395 C-97.31657621 855.2099948 -102.99904411 870.60532927 -108.6875 886 C-115.93601632 905.61692848 -123.11741846 925.25138728 -130 945 C-130.99 945 -131.98 945 -133 945 C-140.82210492 927.10958483 -148.48996497 909.15746689 -156.06997681 891.16323853 C-162.84058112 875.09192168 -169.65859107 859.04129683 -176.5 843 C-183.91572189 825.61005702 -191.30132866 808.2079686 -198.64346313 790.78683472 C-204.79437684 776.19463939 -210.98781723 761.62091488 -217.19946289 747.05447388 C-218.67199241 743.59889164 -220.14208055 740.14228153 -221.61132812 736.68530273 C-225.65930779 727.16386753 -229.70897398 717.64409089 -233.84004211 708.15834045 C-235.38130992 704.6151552 -236.9104779 701.06682618 -238.43765259 697.51754761 C-239.13707164 695.90121471 -239.84247197 694.28745481 -240.55429077 692.67654419 C-241.52020232 690.4898306 -242.46536685 688.29522923 -243.40625 686.09765625 C-243.82932182 685.16246155 -243.82932182 685.16246155 -244.26094055 684.20837402 C-247.48159502 676.54259294 -244.46309371 669.93792605 -241.703125 662.63671875 C-241.36229385 661.71723953 -241.02146271 660.79776031 -240.67030334 659.85041809 C-239.92752792 657.84854913 -239.18164129 655.84783243 -238.43301392 653.84814453 C-236.3772854 648.35587856 -234.34495345 642.85493854 -232.30859375 637.35546875 C-231.87794113 636.19445648 -231.44728851 635.03344421 -231.00358582 633.83724976 C-226.48723863 621.64917439 -222.06408883 609.42781668 -217.64953613 597.20257568 C-215.43139516 591.06000808 -213.20995622 584.91863389 -210.98828125 578.77734375 C-210.34703812 577.00469147 -210.34703812 577.00469147 -209.69284058 575.19622803 C-199.27541814 546.40978745 -188.69482852 517.68444296 -178 489 C-176 490 -176 490 -175.02734375 492.66796875 C-174.48787109 494.41013672 -174.48787109 494.41013672 -173.9375 496.1875 C-167.96873435 513.94028166 -155.58832756 527.49233183 -139.00732422 536.04541016 C-121.85205736 544.20365552 -102.80854014 544.7819273 -84.75 539.3125 C-75.60056241 535.95604871 -67.54952102 531.02960351 -60.5234375 524.28515625 C-59 523 -59 523 -57 523 C-57 522.34 -57 521.68 -57 521 C-56.34 521 -55.68 521 -55 521 C-54.59201172 520.13761719 -54.59201172 520.13761719 -54.17578125 519.2578125 C-52.99284608 516.98626258 -51.65433627 514.97269197 -50.1875 512.875 C-38.79737624 495.77595777 -35.17256394 476.52536495 -39 456.3125 C-41.90654473 445.54037687 -47.52962935 434.32673022 -55 426 C-55.63164062 425.27683594 -56.26328125 424.55367188 -56.9140625 423.80859375 C-69.72860258 410.03878795 -87.20644403 403.00881124 -105.78710938 402.02978516 C-112.73445054 401.93627505 -120.4325351 402.53447432 -127.06201172 404.66162109 C-130.88394836 405.88424204 -132.51439905 406.23684948 -136.1875 404.4453125 C-137.115625 403.67960937 -138.04375 402.91390625 -139 402.125 C-139.94875 401.36445313 -140.8975 400.60390625 -141.875 399.8203125 C-142.57625 399.21960938 -143.2775 398.61890625 -144 398 C-143.34385351 391.88983904 -141.08604353 386.41302693 -138.94140625 380.703125 C-138.52592026 379.58319656 -138.11043427 378.46326813 -137.68235779 377.30940247 C-136.54996135 374.25846551 -135.41312986 371.2092225 -134.27484131 368.1604805 C-132.33728849 362.96401523 -130.41444858 357.76206881 -128.48936081 352.56097603 C-127.99735886 351.23188173 -127.50517263 349.90285563 -127.01280594 348.57389641 C-122.26691125 335.76356773 -117.61191894 322.9216459 -113 310.0625 C-112.27097619 308.03163483 -111.54189046 306.00079189 -110.81274414 303.9699707 C-109.70053315 300.87203597 -108.58837411 297.77408275 -107.47654724 294.67601013 C-102.83828463 281.75573819 -98.17183912 268.84566327 -93.5 255.9375 C-93.05672363 254.712659 -92.61344727 253.48781799 -92.15673828 252.2258606 C-85.78956994 234.63887761 -79.36831838 217.07247232 -72.90274048 199.52145386 C-66.31853903 181.64540809 -59.82932831 163.73588614 -53.35787964 145.8187561 C-46.40882266 126.58572804 -39.36751388 107.38834077 -32.27584839 88.20748901 C-24.25107066 66.49440407 -16.3747868 44.72945567 -8.5521059 22.9428978 C-7.85955721 21.01435363 -7.16657116 19.08596716 -6.47346497 17.15762329 C-5.62495421 14.79612517 -4.77755887 12.43422589 -3.93144226 10.0718689 C-3.55800186 9.03245148 -3.18456146 7.99303406 -2.79980469 6.92211914 C-2.47453796 6.01482559 -2.14927124 5.10753204 -1.81414795 4.17274475 C-1 2 -1 2 0 0 Z " fill="#E75526" transform="translate(534,1)"/>
<path d="M0 0 C76.56 0 153.12 0 232 0 C237.61994356 11.23988711 237.61994356 11.23988711 239.734375 16.3515625 C240.45778076 18.09010498 240.45778076 18.09010498 241.19580078 19.86376953 C241.44751038 20.47303284 241.69921997 21.08229614 241.95855713 21.71002197 C243.37321408 25.13293104 244.80077241 28.55046703 246.2265625 31.96875 C246.68196915 33.06172897 246.68196915 33.06172897 247.14657593 34.17678833 C250.76205872 42.84487446 254.44473083 51.48427598 258.125 60.125 C263.75832207 73.35764003 269.36864244 86.59970533 274.95581055 99.85189819 C284.87440694 123.37698004 294.87609276 146.86631698 304.88815308 170.35174561 C307.87875773 177.36742158 310.86668685 184.38422847 313.8515625 191.40234375 C314.41494827 192.72621346 314.41494827 192.72621346 314.98971558 194.076828 C316.76872255 198.25882929 318.54342246 202.44254777 320.30810547 206.63061523 C323.04479411 213.11725988 325.78545451 219.5942366 328.72540283 225.99194336 C329.56748722 227.82562399 330.39675048 229.66517562 331.22558594 231.50488281 C332.19776588 233.6541416 333.19352615 235.79299598 334.21972656 237.91699219 C334.63706055 238.84930664 335.05439453 239.78162109 335.484375 240.7421875 C335.85272461 241.5244873 336.22107422 242.30678711 336.60058594 243.11279297 C337.2433752 247.75926352 335.5433279 251.64306092 334 256 C333.7045932 256.85183868 333.4091864 257.70367737 333.10482788 258.58132935 C332.15952853 261.26265967 331.18712688 263.93276456 330.20703125 266.6015625 C329.68069344 268.04527725 329.68069344 268.04527725 329.14372253 269.51815796 C328.0359794 272.55475274 326.92431129 275.58989268 325.8125 278.625 C325.05507721 280.69912334 324.29791332 282.77334124 323.54101562 284.84765625 C321.69699969 289.89953372 319.84976989 294.95022672 318 300 C317.38516251 299.79404205 316.77032501 299.58808411 316.13685608 299.37588501 C315.32864914 299.1056955 314.5204422 298.83550598 313.68774414 298.55712891 C312.88728165 298.28929596 312.08681915 298.02146301 311.26210022 297.74551392 C304.26283942 295.4387875 297.35443819 293.59309985 290 293 C289.36320312 292.94714844 288.72640625 292.89429688 288.0703125 292.83984375 C276.0108286 292.31650766 263.69955593 295.6575205 253 301 C251.50533203 301.73863281 251.50533203 301.73863281 249.98046875 302.4921875 C234.25531644 310.93007411 223.18250965 325.4266483 217.70703125 342.328125 C213.05052309 359.92509505 214.29749803 377.40999575 222 394 C222.27328125 394.66 222.5465625 395.32 222.828125 396 C229.84429122 411.81826567 244.78733488 423.22984524 260.5703125 429.39453125 C263.36645647 430.32988437 266.15991549 431.20935376 269 432 C268.34562374 437.33819197 266.67200882 442.00189554 264.78125 446.99609375 C264.45122482 447.88174515 264.12119965 448.76739655 263.78117371 449.67988586 C263.06605964 451.59770355 262.34858028 453.51464056 261.6289978 455.43078613 C259.69601944 460.57863748 257.78026379 465.73289397 255.86328125 470.88671875 C255.46518753 471.95580475 255.06709381 473.02489075 254.65693665 474.12637329 C249.87902103 486.97822765 245.2346142 499.87827863 240.59814453 512.78170776 C239.89919577 514.726873 239.19961383 516.67181086 238.49934387 518.61650085 C237.86828016 520.3691176 237.23865054 522.12225182 236.61088562 523.87605286 C234.53557782 529.63751392 232.30628567 535.32721059 230 541 C226.91282735 539.45641367 226.54685999 536.98989206 225.234375 533.84375 C224.96487534 533.20324203 224.69537567 532.56273407 224.41770935 531.90281677 C223.52233497 529.77106016 222.63631447 527.63553748 221.75 525.5 C221.11960521 523.99522699 220.48849039 522.49075543 219.85668945 520.98657227 C218.54502957 517.86217522 217.23648681 514.73650029 215.93017578 511.60986328 C213.32232782 505.37381819 210.67946856 499.15273342 208.03512573 492.93209839 C206.88128806 490.21693451 205.72932589 487.50097639 204.57728577 484.78504944 C198.1176814 469.55740698 191.64442869 454.33555731 185.17333984 439.11279297 C183.0280875 434.06617967 180.88313661 429.01943828 178.73828125 423.97265625 C178.21338608 422.73761101 178.21338608 422.73761101 177.67788696 421.47761536 C175.91112296 417.32049215 174.14445441 413.16332841 172.37792969 409.00610352 C169.18240967 401.48623076 165.98624717 393.96663452 162.78674316 386.44845581 C155.61819989 369.60368531 148.46658382 352.75232846 141.375 335.875 C132.38123387 314.47192567 123.26690154 293.12028708 114.16165161 271.76446533 C108.10355579 257.55422553 102.0638547 243.33617816 96.02442932 229.11799622 C93.63278433 223.488005 91.23868484 217.85906117 88.84375 212.23046875 C81.09905718 194.02613977 73.3834347 175.80989973 65.69683838 157.58096313 C58.51593106 140.55502562 51.27961687 123.55297942 44.03118896 106.55569458 C36.54096731 88.98985027 29.09150394 71.40732559 21.68237305 53.80712891 C17.98673802 45.0341122 14.26698529 36.27275477 10.48828125 27.53515625 C10.13120087 26.70818741 9.77412048 25.88121857 9.40621948 25.02919006 C7.73287136 21.15479688 6.05427053 17.28286322 4.36523438 13.4152832 C3.78104131 12.06600831 3.19704452 10.7166484 2.61328125 9.3671875 C2.10579346 8.20300293 1.59830566 7.03881836 1.07543945 5.83935547 C0 3 0 3 0 0 Z " fill="#E75526" transform="translate(0,0)"/>
<path d="M0 0 C11.50748611 9.7438198 17.89759902 22.74114655 19.89453125 37.54296875 C20.41074921 44.76169413 19.65533796 51.86875716 18.13671875 58.9296875 C18.68070312 59.17203125 19.2246875 59.414375 19.78515625 59.6640625 C22.7002725 61.2329955 25.15053559 63.14202002 27.76171875 65.1796875 C28.31802979 65.61224854 28.87434082 66.04480957 29.44750977 66.49047852 C30.67756045 67.4474449 31.90642455 68.40593786 33.13427734 69.36572266 C35.25279753 71.0203484 37.37593024 72.66891153 39.5 74.31640625 C45.95917693 79.329022 52.41604366 84.34384149 58.82226562 89.42407227 C59.97689088 90.33396717 61.13696274 91.23699888 62.30273438 92.13256836 C64.97542498 94.18647975 67.46343475 96.23896641 69.91796875 98.5625 C72.65963457 101.00580807 74.679208 102.6728294 78.13671875 103.9296875 C82.35808491 103.28123756 85.86480103 102.10800975 89.75390625 100.40234375 C101.52235253 95.27912868 114.76472539 97.71776262 126.49609375 101.73828125 C140.98207516 107.51726319 149.96421437 117.85106874 156.65625 131.46484375 C162.78975431 145.81950951 162.41213748 161.18336474 156.69140625 175.5625 C151.3510181 187.06296378 144.17365797 195.6370441 133.13671875 201.9296875 C132.5025 202.30738281 131.86828125 202.68507813 131.21484375 203.07421875 C119.05740497 209.78090502 104.37050876 210.72164944 90.94921875 207.8671875 C77.08794 203.77820405 64.9521541 195.5097191 57.6796875 182.87890625 C52.57152316 173.27288927 49.77387069 164.75009773 49.94921875 153.8046875 C49.95018555 152.64646484 49.95018555 152.64646484 49.95117188 151.46484375 C49.98399606 147.18311054 50.29501227 143.14495357 51.13671875 138.9296875 C42.72226045 132.30093418 34.28366719 125.70423058 25.82397461 119.13330078 C21.72430601 115.94733747 17.63025993 112.75475074 13.5534668 109.53955078 C12.41362101 108.64318751 11.27061345 107.75082825 10.12426758 106.86279297 C7.24067547 104.62434207 4.43798226 102.33614782 1.69921875 99.921875 C-3.61565977 94.94418654 -3.61565977 94.94418654 -10.25390625 92.87109375 C-12.61035226 93.68059229 -14.6642212 94.7608515 -16.86328125 95.9296875 C-31.92467036 100.87203867 -46.72549257 99.78597451 -61.16015625 93.4921875 C-75.35684937 85.84215597 -84.50152978 74.13260313 -89.50585938 58.98461914 C-92.951474 46.62301685 -91.8694694 32.63694881 -86.86328125 20.9296875 C-86.26193359 19.51816406 -86.26193359 19.51816406 -85.6484375 18.078125 C-78.6899788 3.75781869 -66.19027246 -5.09801173 -51.50390625 -10.30859375 C-33.50419837 -15.50081718 -14.92621389 -10.79248753 0 0 Z " fill="#211D1A" transform="translate(320.86328125,320.0703125)"/>
</svg>
